<svg width="92" height="45" viewBox="0 0 92 45" fill="none" xmlns="http://www.w3.org/2000/svg">
<path d="M27.599 34.2V24.9148H36.335C37.583 24.9148 38.465 25.1145 38.9808 25.5139C39.505 25.9049 39.767 26.4083 39.767 27.024V27.1612C39.767 27.6771 39.6006 28.0889 39.2678 28.3968C38.935 28.6963 38.569 28.8918 38.1696 28.9833C38.4192 29.0416 38.648 29.1206 38.856 29.2204C39.0723 29.3203 39.297 29.4576 39.5299 29.6323C39.7712 29.807 39.9584 30.0441 40.0915 30.3436C40.233 30.6432 40.3037 30.9843 40.3037 31.367V31.5168C40.3037 33.3056 38.9974 34.2 36.385 34.2H27.599ZM35.2618 27.024H31.1434V28.3344H35.2618C35.8941 28.3344 36.2102 28.118 36.2102 27.6854V27.6604C36.2102 27.2361 35.8941 27.024 35.2618 27.024ZM35.4864 30.4185H31.1434V32.016H35.4864C36.2186 32.016 36.5846 31.7497 36.5846 31.2172V31.1798C36.5846 30.6723 36.2186 30.4185 35.4864 30.4185ZM49.3532 30.3811L47.7932 27.1862L46.2707 30.3811H49.3532ZM51.2128 34.2L50.4889 32.7024H45.1849L44.4736 34.2H40.8793L45.472 24.9148H50.2393L55.094 34.2H51.2128ZM61.9966 34.3747H61.5098C60.4199 34.3747 59.4631 34.2665 58.6394 34.0502C57.8241 33.8339 57.1876 33.5676 56.73 33.2515C56.2724 32.927 55.9022 32.5443 55.6193 32.1033C55.3364 31.6624 55.1534 31.2547 55.0702 30.8803C54.987 30.5059 54.9454 30.1148 54.9454 29.7072V29.3452C54.9454 28.9292 54.9828 28.5382 55.0577 28.1721C55.1409 27.806 55.3198 27.4067 55.5943 26.974C55.8689 26.5331 56.2308 26.1587 56.6801 25.8508C57.1377 25.5347 57.7783 25.2726 58.602 25.0646C59.434 24.8483 60.4033 24.7401 61.5098 24.7401H61.9966C62.7703 24.7401 63.4775 24.79 64.1182 24.8899C64.7671 24.9897 65.3079 25.1187 65.7406 25.2768C66.1815 25.4348 66.5684 25.6262 66.9012 25.8508C67.2423 26.0672 67.5086 26.2876 67.6999 26.5123C67.8913 26.7369 68.0452 26.9782 68.1617 27.2361C68.2865 27.4857 68.3655 27.7104 68.3988 27.91C68.4404 28.1097 68.4612 28.3052 68.4612 28.4966V28.6588H64.7796C64.4967 27.7104 63.4775 27.2361 61.722 27.2361C59.6503 27.2361 58.6145 27.96 58.6145 29.4076V29.5574C58.6145 29.832 58.6602 30.094 58.7518 30.3436C58.8516 30.5932 59.0097 30.8387 59.226 31.08C59.4506 31.3212 59.7751 31.5126 60.1994 31.654C60.6321 31.7955 61.1438 31.8662 61.7345 31.8662C62.2503 31.8662 62.7038 31.8204 63.0948 31.7289C63.4858 31.6291 63.7812 31.5209 63.9809 31.4044C64.1806 31.288 64.347 31.1424 64.4801 30.9676C64.6132 30.7929 64.6922 30.6681 64.7172 30.5932C64.7422 30.5184 64.7671 30.4352 64.7921 30.3436H68.4612V30.5433C68.4612 30.8262 68.4196 31.1174 68.3364 31.4169C68.2532 31.7081 68.0702 32.0409 67.7873 32.4153C67.5044 32.7814 67.1383 33.1059 66.689 33.3888C66.2481 33.6633 65.6199 33.8963 64.8046 34.0876C63.9975 34.279 63.0615 34.3747 61.9966 34.3747ZM73.4779 34.2H69.9335V24.9148H73.4779V28.584L78.0455 24.9148H82.451L77.0471 29.1331L82.6257 34.2H78.0081L73.4779 30.0441V34.2Z" fill="white"/>
<path d="M89.7799 42C91.1748 30.6717 86.193 9.31834 67.5609 3.10278C56.8001 2.00003 34.5812 2 23.123 2C7.72588 6.81246 2 19.7901 2 32.6718L36.8728 41.198L89.7799 42Z" stroke="white" stroke-width="4"/>
</svg>
